<?xml version="1.0" encoding="UTF-8"?>
<svg version="1.1" viewBox="0 0 519 519" xmlns="http://www.w3.org/2000/svg">
<defs>
<radialGradient id="a" cy="21.931%" r="87.888%">
<stop stop-color="#F25674" offset="0"/>
<stop stop-color="#D82D4E" offset="1"/>
</radialGradient>
</defs>
<g fill="none" fill-rule="evenodd">
<g transform="translate(-1565 -821)">
<g transform="translate(1565 821)">
<circle cx="259.5" cy="259.5" r="259.5" fill="url(#a)"/>
<path d="m258 408c-2.4484 0-4.8966-0.78471-6.9485-2.3541-59.053-37.548-98.357-70.342-117.91-98.38l-1.6968-2.4438-1.2416-1.8052c-13.459-19.657-29.2-45.739-29.2-71.547 0-49.412 39.746-89.469 88.775-89.469 27.148 0 51.45 12.282 67.734 31.633l0.49073 0.58855c16.284-19.69 40.803-32.221 68.225-32.221 49.029 0 88.775 40.057 88.775 89.469 0 26.341-16.397 52.966-30.029 72.755l-0.41223 0.59757-1.6968 2.4438c-19.557 28.039-58.861 60.832-117.91 98.38-2.0519 1.5694-4.5001 2.3541-6.9483 2.3541z" fill="#fff"/>
</g>
</g>
</g>
</svg>
